<svg xmlns="http://www.w3.org/2000/svg" xmlns:xlink="http://www.w3.org/1999/xlink" width="322" height="118" viewBox="0 0 322 118">
  <defs>
    <clipPath id="clip-path">
      <rect id="Rectangle_148" data-name="Rectangle 148" width="322" height="118" transform="translate(939 360)" fill="none"/>
    </clipPath>
    <clipPath id="clip-path-2">
      <rect id="Rectangle_147" data-name="Rectangle 147" width="360.171" height="254.668" transform="translate(919.736 300.809)" fill="none"/>
    </clipPath>
  </defs>
  <g id="Group_410" data-name="Group 410" transform="translate(-939 -360)" clip-path="url(#clip-path)">
    <g id="Group_409" data-name="Group 409">
      <g id="Group_408" data-name="Group 408">
        <g id="Group_407" data-name="Group 407" clip-path="url(#clip-path-2)">
          <g id="Group_406" data-name="Group 406">
            <g id="Group_405" data-name="Group 405" clip-path="url(#clip-path-2)">
              <path id="Path_994" data-name="Path 994" d="M1032.377,420.58c.942,15.945-13.876,34.067-29.739,37.712-16.347,3.757-34.737-3.8-43.035-18.6-2.8-4.993-2.43-8.18,1.2-10.305,3.43-2.01,6.565-.649,9.555,4.149,9.21,14.792,28.009,17.657,41.158,6.324a16.312,16.312,0,0,0,4.86-7.215c.98-2.906.986-6.053-2.249-7.7-3.186-1.618-5.856-.7-8.083,2.281-5.06,6.771-10.171,8.731-16.844,6.825a14.761,14.761,0,0,1-10.706-13.212c-.393-5.359,3.251-11.426,8.337-13.882a14.5,14.5,0,0,1,16.326,2.533c1.345,1.305,2.289,3.015,3.558,4.412,1.731,1.909,3.821,2.953,6.454,1.851a5.493,5.493,0,0,0,3.644-6.158,12.834,12.834,0,0,0-3.594-7.3,26.728,26.728,0,0,0-42.364,3.425c-.556.872-1,1.816-1.569,2.679-2.1,3.188-4.947,4.423-8.386,2.411-3.313-1.938-4.09-4.885-2.324-8.415,6.125-12.243,16.384-19.233,29.528-21.112a38.8,38.8,0,0,1,44.274,39.286" fill="#0b2356" fill-rule="evenodd"/>
              <path id="Path_995" data-name="Path 995" d="M1057.342,447.446a17.67,17.67,0,0,1-14.742-7.021q-5.446-7.02-5.446-19.394,0-11.746,5.692-18.855a18.176,18.176,0,0,1,14.9-7.108,19.5,19.5,0,0,1,12.6,4.136l-2.462,7.125a16.714,16.714,0,0,0-9.964-3.649,10.608,10.608,0,0,0-9.253,5.057q-3.405,5.058-3.4,13.572,0,8.829,3.288,13.66a10.662,10.662,0,0,0,9.369,4.831,20.123,20.123,0,0,0,10.572-3.2l1.043,7.369a20.454,20.454,0,0,1-12.194,3.475" fill="#0b2356"/>
              <path id="Path_996" data-name="Path 996" d="M1086.943,447.238a13.919,13.919,0,0,1-5.431-.921,7.265,7.265,0,0,1-3.4-2.938,13.521,13.521,0,0,1-1.738-4.8,40.655,40.655,0,0,1-.492-6.916V394.443l7.588-.591v37.641q0,5.143,1.014,6.968t3.939,1.825a22.6,22.6,0,0,0,3.679-.382l.2,6.5c-.019,0-.256.059-.709.174s-.889.214-1.3.3-.941.162-1.578.244a14.1,14.1,0,0,1-1.767.122" fill="#0b2356"/>
              <path id="Path_997" data-name="Path 997" d="M1096.24,395.172h7.617v7.786h-7.617Zm0,13.347h7.588v38.2h-7.588Z" fill="#0b2356"/>
              <path id="Path_998" data-name="Path 998" d="M1111.736,446.716v-38.2h6.111l.84,4.831q4.866-5.769,10.8-5.77,5.561,0,8.327,3.841t2.766,11.139v24.156h-7.618V423.673a15.505,15.505,0,0,0-1.245-6.917,4.511,4.511,0,0,0-4.374-2.294,7.394,7.394,0,0,0-4.5,1.513,8.731,8.731,0,0,0-2.969,3.8,45.923,45.923,0,0,0-.55,8.341v18.6Z" fill="#0b2356"/>
              <path id="Path_999" data-name="Path 999" d="M1144.117,446.716l15.611-50.953h8.544l15.38,50.953H1175.6l-4.2-14.389h-14.859l-4.229,14.389Zm14.4-21.41h10.89q-5.214-20.053-5.358-20.715Z" fill="#fda522"/>
              <path id="Path_1000" data-name="Path 1000" d="M1198.568,447.238a13.911,13.911,0,0,1-5.43-.921,7.256,7.256,0,0,1-3.4-2.938,13.5,13.5,0,0,1-1.738-4.8,40.542,40.542,0,0,1-.493-6.916V394.443l7.589-.591v37.641q0,5.143,1.013,6.968t3.94,1.825a22.581,22.581,0,0,0,3.678-.382l.2,6.5c-.02,0-.257.059-.71.174s-.888.214-1.3.3-.941.162-1.578.244a14.082,14.082,0,0,1-1.767.122" fill="#fda522"/>
              <path id="Path_1001" data-name="Path 1001" d="M1218.843,447.238a13.919,13.919,0,0,1-5.431-.921,7.258,7.258,0,0,1-3.4-2.938,13.519,13.519,0,0,1-1.739-4.8,40.655,40.655,0,0,1-.492-6.916V394.443l7.589-.591v37.641q0,5.143,1.013,6.968t3.939,1.825A22.592,22.592,0,0,0,1224,439.9l.2,6.5c-.019,0-.256.059-.709.174s-.888.214-1.3.3-.941.162-1.578.244a14.082,14.082,0,0,1-1.767.122" fill="#fda522"/>
              <path id="Path_1002" data-name="Path 1002" d="M1229.646,462.808a29.938,29.938,0,0,1-3.939-.278l-.376-7.056a26.985,26.985,0,0,0,3.389.175,6.662,6.662,0,0,0,4.229-1.252,9.151,9.151,0,0,0,2.635-4.449q.116-.346,1.158-3.927l-12.8-37.5h8.11l8.371,27.7q.925-4.137,4.156-15.363t3.548-12.338h8.11q-13.237,41.986-13.352,42.333-2.058,6.429-5.185,9.193a11.711,11.711,0,0,1-8.052,2.763" fill="#fda522"/>
              <path id="Path_1003" data-name="Path 1003" d="M980.765,419.91a12.3,12.3,0,1,1,12.3,12.3,12.3,12.3,0,0,1-12.3-12.3" fill="#fda522" fill-rule="evenodd"/>
            </g>
          </g>
        </g>
      </g>
    </g>
  </g>
</svg>
